<svg width="60" height="60" viewBox="0 0 60 60" fill="none" xmlns="http://www.w3.org/2000/svg">
<path d="M52.5 20V52.4825C52.5023 52.8108 52.4399 53.1364 52.3164 53.4406C52.1929 53.7447 52.0107 54.0216 51.7802 54.2554C51.5496 54.4892 51.2753 54.6753 50.9729 54.803C50.6704 54.9308 50.3458 54.9977 50.0175 55H9.9825C9.32453 55 8.69348 54.7388 8.22799 54.2738C7.7625 53.8088 7.50066 53.178 7.5 52.52V7.48C7.5 6.1375 8.6225 5 10.005 5H37.4925L52.5 20ZM47.5 22.5H35V10H12.5V50H47.5V22.5ZM20 17.5H27.5V22.5H20V17.5ZM20 27.5H40V32.5H20V27.5ZM20 37.5H40V42.5H20V37.5Z" fill="#0F1324" fill-opacity="0.6"/>
</svg>
