<svg width="20" height="20" viewBox="0 0 20 20" fill="none" xmlns="http://www.w3.org/2000/svg">
<g clip-path="url(#clip0_4038_1866)">
<path d="M10.0001 18.3333C5.39758 18.3333 1.66675 14.6025 1.66675 9.99996C1.66675 5.39746 5.39758 1.66663 10.0001 1.66663C11.294 1.66566 12.5702 1.96644 13.7275 2.54508C14.8848 3.12372 15.8912 3.96427 16.6667 4.99996H14.4084C13.4461 4.15143 12.2594 3.59859 10.9907 3.40779C9.72196 3.217 8.42514 3.39634 7.25582 3.92431C6.08651 4.45227 5.09437 5.30643 4.39847 6.38428C3.70257 7.46214 3.33247 8.7179 3.33258 10.0009C3.33269 11.2839 3.703 12.5396 4.39908 13.6173C5.09515 14.695 6.08743 15.549 7.25683 16.0768C8.42624 16.6046 9.72309 16.7837 10.9918 16.5927C12.2605 16.4017 13.4471 15.8487 14.4092 15H16.6676C15.8919 16.0358 14.8854 16.8764 13.728 17.455C12.5705 18.0337 11.2941 18.3344 10.0001 18.3333V18.3333ZM15.8334 13.3333V10.8333H9.16675V9.16663H15.8334V6.66663L20.0001 9.99996L15.8334 13.3333Z" fill="white" fill-opacity="0.6"/>
</g>
<defs>
<clipPath id="clip0_4038_1866">
<rect width="20" height="20" fill="white"/>
</clipPath>
</defs>
</svg>
