<svg width="60" height="60" viewBox="0 0 60 60" fill="none" xmlns="http://www.w3.org/2000/svg">
<rect width="60" height="60" rx="10" fill="url(#paint0_linear_6_10058)"/>
<path d="M9.42651 20.8171H14.8241V22.5129H12.2589V37.3504H14.7706V39.0462H9.42651V20.8171Z" fill="white"/>
<path d="M50.5248 20.8171V39.0462H45.1807V37.3504H47.6924V22.5129H45.1273V20.8171H50.5248Z" fill="white"/>
<path d="M22.5196 37.7214C21.9317 37.7214 21.3973 37.6684 20.8629 37.5095C20.3285 37.3505 19.8475 37.1385 19.3665 36.8206C18.939 36.5026 18.5649 36.1847 18.2977 35.7078C18.0305 35.2838 17.9236 34.7539 17.9236 34.224V26.8052H21.3439V33.8001C21.3439 34.277 21.5042 34.7009 21.8783 35.0189C22.2524 35.3368 22.7868 35.4958 23.4815 35.4958C24.1762 35.4958 24.7106 35.3368 25.0847 35.0189C25.4588 34.7009 25.6726 34.277 25.6726 33.7471V26.8052H29.0394V37.4565H26.4742C26.4208 37.0325 26.3673 36.6086 26.2604 36.1847C25.8863 36.5026 25.5657 36.7146 25.3519 36.8736C24.9778 37.0855 24.7106 37.1915 24.4969 37.2445C24.3366 37.2975 24.1762 37.3505 23.9625 37.4035C23.4815 37.6154 23.0005 37.7214 22.5196 37.7214ZM36.0401 37.7214C34.4369 37.7214 33.1543 37.2445 32.2458 36.2377C31.3373 35.2308 30.9098 33.8531 30.9098 32.1043C30.9098 30.9915 31.0701 30.0377 31.4442 29.1898C31.8183 28.3949 32.3527 27.7591 33.0474 27.2821C33.7422 26.8052 34.6507 26.5932 35.666 26.5932C36.0936 26.5932 36.5211 26.6462 36.8952 26.7522C37.2693 26.8582 37.6434 26.9642 37.964 27.1232C38.2847 27.2821 38.5519 27.4411 38.7656 27.6531C38.9794 27.865 39.1931 28.077 39.3535 28.289V22.142H42.7737V37.5095H40.3154C40.1551 36.9796 40.0482 36.3966 39.8879 35.8667C39.7276 36.0257 39.5672 36.2377 39.3 36.5026C39.1397 36.6616 38.9794 36.8206 38.7122 36.9796C38.4984 37.1385 38.1243 37.3505 37.5899 37.5095C37.1089 37.6154 36.628 37.7214 36.0401 37.7214ZM36.7883 35.5488C37.6434 35.5488 38.2847 35.2838 38.7122 34.7539C39.1397 34.224 39.3535 33.3231 39.3535 32.0514C39.3535 31.3095 39.2466 30.7266 39.0863 30.2496C38.8725 29.7727 38.6053 29.4018 38.2312 29.1898C37.8571 28.9249 37.3762 28.8189 36.8417 28.8189C36.0936 28.8189 35.5057 29.0838 34.9713 29.5608C34.4903 30.0377 34.2231 30.8855 34.2231 32.0514C34.2231 33.2172 34.4369 34.118 34.9179 34.7009C35.3454 35.2308 35.9867 35.5488 36.7883 35.5488Z" fill="white"/>
<defs>
<linearGradient id="paint0_linear_6_10058" x1="61.4" y1="-2.4" x2="1.85966e-06" y2="60" gradientUnits="userSpaceOnUse">
<stop stop-color="#323C41"/>
<stop offset="1"/>
</linearGradient>
</defs>
</svg>
